# xmcd
#
# Track frame offsets:
#	150
#	27163
#	50705
#	76688
#	114125
#	152652
#	159196
#	176780
#	195545
#	220448
#
# Disc length: 3297 seconds
#
# Revision: 1
# Processed by: cddbd v1.5.1PL2 Copyright (c) Steve Scherf et al.
# Submitted via: EasyCDDAExtractor 9.0.0.1
#
DISCID=760cdf0a
DTITLE=Whitesnake - Petofi Csarnok Budapest 23-11-97 Disc 1
DYEAR=1997
DGENRE=Hard Rock
TTITLE0=Walking In The Shadows Of The Blues
TTITLE1=Give Me All Your Love
TTITLE2=Love Ain't No Stranger
TTITLE3=Too Many Tears
TTITLE4=Ready and Willing
TTITLE5=Mistreated
TTITLE6=Lovehunter
TTITLE7=Slow An' Easy
TTITLE8=Oi
TTITLE9=Is This Love
EXTD=
EXTT0=
EXTT1=
EXTT2=
EXTT3=
EXTT4=
EXTT5=
EXTT6=
EXTT7=
EXTT8=
EXTT9=
PLAYORDER=
